<svg id="svg" version="1.1" viewBox="0 0 300 163.51550960118172" width="300" height="163.51550960118172" xmlns="http://www.w3.org/2000/svg"><svg xmlns="http://www.w3.org/2000/svg"><defs><clipPath id="clip-1"><rect x="0" y="0" transform="scale(0.14648,0.14652)" width="2048" height="1116" fill="none"/></clipPath><linearGradient x1="112.0248" y1="90.81719" x2="190.17041" y2="56.72376" gradientUnits="userSpaceOnUse" id="color-1"><stop offset="0" stop-color="#0f4e3b"/><stop offset="1" stop-color="#19895d"/></linearGradient></defs><g clip-path="url(#clip-1)" fill="none" fill-rule="nonzero" stroke="none" stroke-width="1" stroke-linecap="butt" stroke-linejoin="miter" stroke-miterlimit="10" stroke-dasharray="" stroke-dashoffset="0" font-family="none" font-weight="none" font-size="none" text-anchor="none" style="mix-blend-mode: normal"><path d="M149.84033,29.64334c1.45313,0.12542 1.95557,0.56688 3.00439,1.50812c0.06006,0.53377 0.19482,1.11574 0.30469,1.64702c-0.24316,0.79853 -0.58887,1.58036 -0.90967,2.35251c0.28857,1.21215 1.4209,3.10723 2.00244,4.26415c0.52002,1.03516 1.6626,3.76848 2.83301,3.97565c0.69727,-0.37934 1.4458,-2.49903 1.89697,-3.41756c-4.16016,-4.17668 0.18457,-8.90412 5.1416,-6.02941c0.61084,1.00307 0.88184,1.67178 1.14697,2.80804c-0.61816,3.09141 -2.04346,4.02283 -5.07422,3.85771l-1.38574,3.35148c0.9082,1.68131 0.67676,2.32731 -0.104,3.95426c0.38086,1.30827 0.61523,2.71442 0.86572,4.05858c0.63867,-0.60556 4.28613,-3.40833 4.39453,-3.7887c-0.35156,-0.42725 -1.13672,-0.66681 -1.68018,-0.88278c-0.61816,-0.83633 -0.71924,-1.11428 -1.11328,-2.05317l0.44824,-1.79296l0.93896,-0.96849l1.90723,-0.39765l1.27588,0.60322c1.10303,-1.2082 2.13428,-1.67032 3.28564,-2.69801c0.79248,-0.70813 0.73535,-2.35134 1.91016,-3.00892c2.45215,-1.37186 4.06055,2.80116 1.64648,3.64965c-0.50537,0.10828 -1.55859,-0.11546 -1.99219,0.11839c-1.54395,0.83106 -2.23535,1.95486 -3.86426,2.77229c0.07471,0.38637 0.11719,0.77787 0.12744,1.17098c0.0498,1.37508 -0.33691,1.84116 -1.23633,2.81302c0.12012,0.68278 0.31641,2.35471 0.71484,2.78738c0.14209,-0.05465 2.15918,-2.61127 2.55469,-3.03295c-1.02539,-7.08406 8.05664,-0.11297 0.9375,0.7978c-5.61035,6.77007 -1.98193,6.0404 -3.78809,12.53648l2.59131,-0.51882l-0.1626,2.17742c-1.18652,0.52132 -3.05713,0.81494 -4.3418,1.09113c-5.17383,1.11252 -8.21045,1.83838 -8.1123,7.85841l3.39697,-0.09656c0.99463,-1.08498 1.76953,-2.30328 2.89014,-3.28687c1.65381,-1.44981 6.74414,-1.31355 7.24658,-3.84716c0.66211,-3.3402 -0.15967,-7.15219 0.4043,-10.51935c1.86035,-2.08585 3.67383,-4.72114 5.72314,-7.01974c-0.24463,-0.56879 -0.46436,-1.22578 -0.67529,-1.81464l0.41162,-1.98387c0.76172,-0.90388 1.42969,-1.37098 2.66455,-1.41552c2.14307,-0.07722 3.60645,2.16702 2.92529,4.13829c-0.47168,1.36571 -1.35352,1.71457 -2.55176,2.29552c-0.33691,1.62387 -0.36182,4.01097 -0.70459,5.9081c0.9082,-0.36908 1.48975,-0.47736 2.44043,-0.68439c0.50684,-2.63427 1.23486,-3.49038 3.71631,-4.46386c1.43848,0.28645 2.41113,0.54154 3.35156,1.82666c0.6416,0.86886 0.90674,1.95926 0.73535,3.02562c-0.38818,2.50577 -2.7041,3.45053 -5.00391,3.04467l-1.69775,2.96628c0.40869,0.62344 0.76172,1.22783 1.13818,1.86944c1.95996,0.23516 4.06787,0.39472 6.04102,0.48381c1.03125,0.04645 1.05322,-0.91853 1.86621,-1.10373c0.33691,-0.07692 0.95068,-0.12146 1.30957,-0.15487c0.08789,0.07809 0.17432,0.15736 0.26074,0.23795c2.06836,1.94622 1.23779,4.04115 -1.80469,3.95441c-1.06787,1.04629 -2.07861,2.2961 -3.14209,3.3632c-0.45264,0.45245 -0.78369,0.82051 -0.55957,1.45274c0.75732,0.68351 2.79785,0.66505 3.88184,0.73274c0.854,-1.12556 2.05225,-2.43515 3.63281,-2.13083c1.70215,0.32762 2.82861,2.22607 2.50342,3.90767c-0.36768,1.89874 -1.96875,2.74255 -3.80273,2.3531c-1.30371,-0.29304 -2.04932,-1.51003 -2.7041,-2.56335c-1.09277,-0.08571 -2.18408,-0.18022 -3.27393,-0.28381c-0.16846,0.17963 -0.33984,0.35663 -0.5127,0.53099c-1.875,1.87325 -3.33105,0.94197 -4.83398,-0.67648c-1.62744,0.44513 -3.85107,0.08777 -4.65088,0.75282l-0.01172,0.23209c2.21484,1.15223 5.67041,2.51398 8.02588,3.49932c0.85254,0.35003 1.62158,-0.70359 2.48438,-0.19311c1.06348,0.62945 1.57764,1.89112 0.87158,3.00306c-0.30908,0.48864 -0.80859,0.82402 -1.37842,0.92322c-1.53809,0.26901 -1.97021,-1.08234 -2.18848,-2.24394c-1.69189,-0.46491 -3.09961,-1.21391 -4.69482,-1.91398c-1.49414,-0.65509 -3.01758,-1.20644 -4.49121,-1.91501c-1.11768,0.52088 -1.75488,0.81641 -2.92676,1.1704c1.13379,1.33992 3.54346,3.64936 4.98779,4.624c-0.26953,-0.18227 3.73828,-0.22945 4.26563,-0.17333c1.41504,0.87882 1.82666,1.67574 1.92334,3.32496c0.35889,6.14033 -9.31055,5.47088 -7.32715,-1.67091c-0.97852,-1.13992 -4.01367,-3.53199 -5.43457,-4.16276c-2.54736,-1.13069 -4.30518,-0.63868 -6.71338,0.27223c1.02979,0.78256 4.00781,3.9462 5.12256,5.06839c1.229,-0.25348 2.2998,-0.45289 3.45557,0.12806c0.71924,0.36366 1.26123,1.00175 1.50293,1.7701c0.25781,0.80761 0.17432,1.68526 -0.22998,2.43017c-0.68994,1.26563 -1.69043,1.55882 -2.94434,1.91457c-0.12598,-0.0337 -0.25195,-0.07048 -0.37793,-0.11033c-2.58105,-0.8082 -3.19189,-2.42782 -2.27783,-4.98136c-1.45898,-1.1682 -4.22754,-3.98474 -5.50928,-5.4111c-4.3916,5.91703 -2.88574,8.12171 -2.34961,14.95581l0.70166,8.25988c0.12744,1.57801 0.18896,3.10196 0.40723,4.67587c0.7793,5.60597 6.02051,4.71426 10.12061,4.64906c-0.01611,0.72117 -0.07764,1.52922 -0.11719,2.25713c-2.5166,0.09582 -5.28662,0.01553 -7.82666,0.01216c-4.33008,0.01861 -8.66016,0.01524 -12.98877,-0.00982l0.02051,-30.75718c1.36377,1.10754 2.98242,2.13332 4.41357,3.28526c-0.59473,-2.05449 -1.22754,-3.56745 -1.78271,-5.76524c1.42676,-1.61801 3.32666,-2.70856 5.07715,-4.07968c-1.8501,0.18886 -4.46631,0.07443 -6.35742,0.03062c-0.60645,-1.63091 -1.3667,-3.52452 -1.8252,-5.18034l-0.05566,-0.32835l-0.20215,0.01817c-0.40869,0.64996 -1.66992,4.45858 -2.02148,5.41858c-1.74111,0.28894 -4.33066,0.13656 -6.15425,0.09333c5.14937,4.98209 5.73677,1.52541 3.13403,9.79686c1.04766,-0.87355 3.25605,-2.48658 4.38545,-3.21742c0.15088,2.6561 -0.00293,7.15981 -0.00439,9.90617l0.01611,20.7757l-20.86904,0.04689c0.08862,-0.77934 0.07368,-1.49508 0.07236,-2.27574c2.2292,0.01348 5.86172,0.36307 7.73584,-0.92014c2.81572,-1.92819 2.32837,-5.59762 2.6291,-8.6757l0.84829,-9.25811c0.63413,-6.44113 1.6084,-8.13753 -2.38799,-13.73017c-1.58936,1.68688 -3.82134,3.87587 -5.55103,5.39572c0.99624,2.90855 0.22017,4.21697 -2.59512,5.11601c-3.16978,-0.79018 -3.46245,-1.79647 -3.17271,-4.79177c1.29727,-1.98563 2.51323,-1.8416 4.62627,-1.47325c1.86035,-1.40453 3.57407,-3.62284 5.36499,-5.08744c-5.39341,-2.19764 -8.28604,0.19809 -12.08452,3.86108c0.35771,2.20761 0.51899,4.55499 -1.90063,5.57916c-3.64849,1.54446 -6.76479,-1.96761 -5.15142,-5.38444c0.38423,-0.8315 1.09658,-1.46563 1.96685,-1.75091c1.32539,-0.43677 2.73105,-0.1115 3.94731,0.48425c0.49189,-0.46535 0.90073,-0.96175 1.36494,-1.43574c1.14521,-1.16908 2.43691,-2.2838 3.63779,-3.39734c-1.13892,-0.42285 -1.90181,-0.70534 -2.97334,-1.263c-1.17056,0.57304 -2.83916,1.04717 -4.10303,1.61391c-1.65264,0.7408 -3.31802,1.62944 -5.00449,2.23339c-0.23613,1.08468 -0.37471,1.82768 -1.61616,2.12057c-0.52061,0.11809 -1.06685,0.02198 -1.51611,-0.26652c-0.3873,-0.25011 -0.77681,-0.70915 -0.81812,-1.18959c-0.32109,-3.72291 3.50054,-2.15618 3.47065,-2.13816c0.81211,-0.49099 8.00537,-3.33771 8.1936,-3.64511l-0.12568,-0.22857c-0.7585,-0.53509 -3.70811,-0.56278 -4.78081,-0.62754c-1.59331,2.26211 -3.62505,2.22739 -5.22905,-0.01392c-1.14712,0.1345 -2.29189,0.28747 -3.43403,0.4589c-1.27822,3.62181 -4.37402,3.06167 -6.51167,0.45055l0.20024,-2.04292c2.15288,-3.25639 4.07725,-2.71471 6.30835,0.02212c0.89546,-0.0948 3.18032,-0.18667 3.8209,-0.56967l0.07046,-0.3515c-0.37471,-1.22021 -2.95327,-3.755 -3.92769,-4.75909c-5.67627,-0.29275 -1.32715,-6.71776 0.92402,-3.0161c0.22119,0.36366 6.05493,-0.21333 6.80815,-0.26432c0.40151,-0.703 0.79102,-1.28585 1.23911,-1.95427c-0.8291,-1.1534 -1.20615,-1.67164 -1.73862,-2.97551c-2.07612,0.42915 -2.95576,0.01289 -4.53062,-1.29831c-1.13965,-2.94811 -0.60264,-4.06957 1.5958,-6.13051c1.39292,-0.17245 2.03335,-0.15853 3.36489,0.07707c0.06284,0.0463 0.12495,0.09377 0.18618,0.14227c1.42471,1.11897 1.85581,1.87808 2.05488,3.63602c0.80728,0.23253 1.80454,0.59677 2.61694,0.86945c-0.34702,-1.9679 -0.52529,-3.98225 -0.69565,-5.97095c-2.26099,-0.88322 -3.37866,-1.95984 -2.54707,-4.60012c0.77505,-2.46064 4.73804,-2.33391 5.56348,0.05011c0.4292,1.2397 0.2228,2.15588 -0.28154,3.33053c1.90107,2.35867 3.77139,4.74195 5.61064,7.14911c0.45674,3.10093 -0.04307,6.78501 0.35815,9.87921c0.40854,3.15178 4.95762,2.81039 7.0251,4.16994c0.92563,0.60879 2.35313,2.50607 3.12729,3.45639l3.49805,0.3071c-0.3876,-1.43354 -0.14033,-3.02343 -0.80435,-4.38444c-2.00596,-4.11118 -9.88315,-3.10826 -11.48306,-4.82004c-0.37163,-0.39765 -0.22354,-1.59838 -0.21284,-2.12424c0.80991,0.20395 1.63096,0.42828 2.43984,0.64175c-0.68042,-2.08849 -0.52427,-5.82736 -0.52983,-8.1642c-0.38071,-0.76454 -2.50122,-3.48628 -3.16099,-4.35748c-1.14448,-0.1663 -2.61123,-0.45861 -2.68638,-1.92731c-0.07793,-1.52175 2.07568,-2.84174 3.19893,-1.51179c0.6501,0.76952 0.51372,1.66329 0.44692,2.58826c1.03389,1.24659 1.73481,2.14343 2.66147,3.47661c0.12334,-1.13435 0.24258,-2.01991 0.45249,-3.14035c-1.6686,-2.08673 -0.81577,-1.86871 -1.1915,-3.94342c-0.09214,-0.50871 -3.18296,-2.7594 -3.88608,-3.10811c-4.6292,0.92571 -3.10591,-4.96627 -0.13916,-3.57419c0.76567,0.35927 1.06025,1.70182 1.22432,2.49698c0.92593,0.8901 2.46973,2.06592 3.50625,2.80848c0.94644,0.6778 2.13105,-0.78915 3.69946,0.26842c0.61509,0.41465 1.03374,1.063 1.15854,1.79442c0.49717,2.83779 -2.17529,3.17742 -2.62236,3.79793c0.5083,1.15413 3.19907,2.39837 4.44507,4.06313c0.12305,-1.55897 0.40547,-2.74211 0.87026,-4.22166c-0.93252,-1.7197 -1.10171,-2.45596 -0.18442,-4.21888c-0.50508,-1.10959 -0.83276,-1.95032 -1.24175,-3.10079c-2.54341,-0.02154 -4.4146,-0.40249 -4.92583,-3.31134c-0.6772,-3.85346 3.95244,-5.62839 6.50186,-3.35983c0.71558,0.63824 1.13496,1.54417 1.15884,2.50284c0.05449,1.60058 -0.7292,2.40585 -1.70317,3.46811c0.50889,0.9449 1.0021,2.32116 1.59272,3.10416c0.5502,0.23458 0.3085,0.19355 0.93179,0.12234c0.59414,-0.27809 3.70225,-6.88743 4.30283,-7.92464c-0.89648,-1.37919 -0.84082,-2.12849 -0.80566,-3.72056c0.26514,-0.47003 0.58008,-0.86432 0.90527,-1.29406c0.72363,-0.32088 1.11328,-0.4271 1.88525,-0.63399zM119.95034,58.48976c4.3582,-0.00659 5.5333,3.2391 2.48979,6.21227c3.10708,7.06443 6.51226,6.6571 13.42485,6.67791c-0.56748,-0.74051 -0.75234,-0.9912 -1.50073,-1.59266c-1.90195,-0.8104 -7.99717,-3.44496 -10.04019,-4.70385c-0.14209,-0.08747 -0.07896,-0.55882 -0.01216,-0.80717c0.1292,-0.1433 0.27759,-0.38285 0.49658,-0.30608c1.08398,0.38036 2.16152,0.86358 3.25269,1.25069c-0.2874,-3.07647 -0.13447,-5.90575 -2.81016,-8.08024c-1.76382,-1.43354 -3.73096,-2.06314 -5.8853,-2.65024c-1.61865,1.42402 -0.12905,2.37962 0.58462,3.99939zM172.00928,65.17573c0.81299,-0.2885 2.96191,-1.2816 3.55957,-1.00087c0.25342,0.54139 0.28271,0.39663 0.19482,0.90783c-0.73975,0.59443 -5.98389,2.84013 -7.31836,3.60672c-0.59326,0.34036 -2.18994,0.73582 -3.10547,1.30754c-0.47461,0.49875 -0.82617,0.86827 -1.24219,1.41435c6.50244,-0.08044 10.73291,0.44469 13.44727,-6.76685c-0.95654,-0.92205 -1.63916,-1.56834 -1.65381,-3.04452c-0.01465,-0.78388 0.29736,-1.5386 0.8584,-2.08526c0.79834,-0.77875 1.76953,-1.07208 2.85498,-1.03882c0.14063,0.00454 0.28125,0.01128 0.42188,0.02037c0.55225,-1.10666 0.94922,-1.90416 1.61865,-2.93654c-0.3252,-0.38945 -0.71777,-1.02256 -1.24512,-1.03281c-2.55762,0.56879 -5.70557,2.04131 -7.11182,4.33741c-1.48975,2.43295 -0.94043,3.92847 -1.27881,6.31146zM145.05688,43.78626c0.44517,1.60072 0.58887,1.95838 0.30732,3.63632c1.37212,0.96468 2.62163,2.94767 3.49468,3.1298c0.99902,-0.92586 0.32666,-3.87031 0.36475,-5.15968c0.01758,-0.59106 0.12158,-0.97802 0.24316,-1.54036c-0.75732,-0.57582 -1.19824,-0.87721 -1.34619,-1.86695c-0.17578,-1.17596 0.68994,-1.9616 1.78271,-2.06841c0.24023,-0.02549 0.48047,-0.03048 0.7207,-0.01494c1.82959,1.3112 1.76514,2.61171 -0.00439,3.8728c-0.01318,1.13186 -0.22852,5.93784 0.25781,6.56773c0.77051,0.13289 3.24756,-2.43691 3.85107,-3.08101c-0.25342,-1.61537 -0.29297,-1.92424 0.34277,-3.48965c-0.8584,-1.47252 -1.72119,-2.93786 -2.50928,-4.44935c-0.62695,-1.20043 -0.98584,-2.34929 -1.79004,-3.44452c-0.49365,-0.01143 -1.15576,-0.00352 -1.61719,-0.10857c-1.19092,2.18607 -2.05078,4.5043 -3.35464,6.64055c-0.25708,0.42139 -0.50449,0.9345 -0.74326,1.37626zM154.59375,57.93944l0.75586,1.04629c1.37549,-2.82943 1.6582,-4.80056 1.36523,-7.939c-0.07324,-0.79487 -0.06592,-2.132 -0.43506,-2.8183l-0.44824,-0.11736c-0.97266,0.84249 -1.9043,2.26226 -3.09814,3.39031c0.3457,1.64219 0.35742,2.26402 -0.22119,3.87485c0.7251,0.84146 1.45166,1.64863 2.08154,2.56321zM160.42822,53.53726c-0.12891,2.27852 -0.22119,4.29888 -1.07812,6.42868c-0.15674,0.39267 -0.51709,1.24937 -0.43506,1.61904l0.15381,-0.08029c1.06055,-0.24366 3.60205,-0.65157 4.24512,-1.56365c0.99609,-1.41259 1.49561,-8.45182 0.72949,-9.4691l-0.08496,-0.03853c-2.21191,1.14725 -1.89697,1.27633 -3.53027,3.10386zM143.91313,47.93378c-0.91611,2.56819 -0.8562,7.3538 0.34424,9.88624c0.16553,0.35399 0.34937,0.69904 0.55078,1.03384c0.32153,-0.4315 0.94424,-1.19413 1.10332,-1.66636l1.55874,-1.76966c-0.49365,-1.62695 -0.5376,-2.36819 -0.01172,-3.9947c-0.95801,-0.79428 -3.01699,-3.32335 -3.54536,-3.48936zM128.97964,57.196c-0.04204,-1.2186 -0.05713,-1.95046 -0.28359,-3.14137c-1.05176,-1.19838 -4.91045,-6.59249 -5.63569,-6.80611c0.03091,1.81889 0.17578,5.07513 1.09204,6.66458c0.20259,0.35165 2.34067,1.34461 2.84575,1.6605c0.59736,0.37362 1.42705,1.61845 1.98149,1.62241zM139.68179,53.68554c-1.35542,-1.95955 -1.76821,-2.29273 -3.84214,-3.39295c-0.16201,3.62811 -0.43184,6.28612 0.88037,9.7261c1.46631,1.03736 2.67817,0.89113 4.4291,1.58358c-0.029,-0.71882 -0.99023,-2.87676 -1.17319,-3.72452c-0.2874,-1.33054 -0.26089,-2.83236 -0.29414,-4.19221zM171.34131,57.35775c2.63086,-2.96277 2.50195,-1.89303 4.91455,-3.43427c0.14795,-1.37157 0.91113,-5.66795 0.70459,-6.64069l-0.15234,-0.13846c-1.48682,1.84702 -4.30664,5.10019 -5.46826,7.24318c-0.12158,0.22608 -0.16406,2.27413 -0.24756,2.84203l0.13477,0.14696zM136.74727,46.04984c1.29111,-1.56966 0.11733,-2.56409 -1.68149,-2.3572c-0.26206,0.50886 -0.4752,1.09743 -0.30557,1.67867c0.08423,0.29626 0.28901,0.54344 0.5644,0.68117c0.43975,0.22549 0.96665,0.12527 1.42266,-0.00264zM171.45703,86.25106c0.79541,-0.25846 1.24365,-1.10109 1.01367,-1.90563c-0.22998,-0.80468 -1.05762,-1.2819 -1.86914,-1.07955c-0.55078,0.13729 -0.98291,0.56439 -1.12646,1.11384c-0.14355,0.54959 0.02344,1.13377 0.43652,1.52351c0.41309,0.38989 1.00488,0.52337 1.54541,0.34784zM184.57324,71.55972c0.50684,-0.31692 0.66797,-0.98065 0.36182,-1.49464c-0.30469,-0.51414 -0.96387,-0.6904 -1.48535,-0.39707c-0.34717,0.19575 -0.5625,0.56469 -0.56104,0.96395c0.00293,0.39912 0.21973,0.766 0.56982,0.95868c0.3501,0.19267 0.77637,0.1808 1.11475,-0.03092zM189.40137,63.20138c-0.97412,-0.19253 -6.09961,-0.66197 -7.13818,-0.6545c-0.89502,1.51984 -0.93896,1.44908 -2.40088,2.34958c-0.33691,1.71852 -0.79541,3.50796 -1.60986,5.06913l3.27979,-0.11883c0.60205,-0.87018 0.93018,-1.48278 1.93799,-1.8753c0.21973,0.00161 1.13525,0.00088 1.26709,-0.08982c1.70215,-1.16424 3.31055,-3.16115 4.66406,-4.68027zM164.12256,43.55871c-0.50098,0.01568 -0.95068,0.31253 -1.16309,0.76761c-0.2124,0.45524 -0.14941,0.99091 0.16113,1.3849c0.31201,0.39414 0.81738,0.57934 1.30957,0.47882c0.67676,-0.13817 1.13379,-0.77113 1.05469,-1.45669c-0.08057,-0.68571 -0.67236,-1.19589 -1.3623,-1.17465zM178.76221,60.15569c-0.80713,0.16733 -1.32568,0.95897 -1.15576,1.76644c0.16846,0.80761 0.96094,1.32424 1.76807,1.15296c0.8042,-0.17069 1.31836,-0.96029 1.1499,-1.76512c-0.16846,-0.80483 -0.95654,-1.32116 -1.76221,-1.15428zM145.73452,60.22396c1.31382,1.74373 3.32505,4.31089 4.22593,6.23586l0.1377,0.14037c0.40576,-0.62549 0.65332,-1.42812 1.11621,-2.15002c0.96973,-1.50812 2.04199,-2.90724 3.08057,-4.36906c-0.67969,-0.74783 -2.76709,-3.74826 -3.20361,-3.93228l-0.27393,0.05788c-0.95068,0.07546 -1.3374,0.04923 -2.26172,-0.03267c-0.93896,1.4523 -1.74023,2.68233 -2.82114,4.04994zM120.34805,60.26382c-0.7667,0.31458 -1.12983,1.19443 -0.80801,1.95838c0.32168,0.7641 1.20469,1.11882 1.96538,0.78989c0.75073,-0.32454 1.0998,-1.19355 0.78223,-1.94753c-0.31743,-0.75384 -1.18286,-1.1112 -1.9396,-0.80073zM110.66235,63.10204c1.17817,1.32351 3.12012,3.69522 4.27705,4.8007c1.05996,0.0611 1.52593,0.02418 2.49741,0.51765c1.20073,1.90167 2.33438,1.49845 4.40288,1.47677c-1.20762,-2.04292 -1.28599,-2.60878 -1.7981,-4.9484c-1.05396,-0.73435 -1.63828,-1.40483 -2.50444,-2.32966c-0.11558,-0.12352 -0.64307,-0.0211 -0.80464,0.01172c-2.02559,0.12674 -4.04927,0.28395 -6.07017,0.47121zM128.87769,83.2269c-2.34888,1.05538 -1.31147,3.16277 0.57026,3.11222c1.89536,-1.0778 1.53428,-3.08496 -0.57026,-3.11222z" fill="url(#color-1)"/><path d="M150.99023,118.42992c2.19873,-0.02491 4.32861,-0.01304 6.52881,0.03648c6.12012,0.13787 9.06885,7.90808 4.27441,11.77107c-3.31201,2.35032 -6.85254,1.77069 -10.88965,1.65362c-0.10986,-1.8271 0.09229,-4.61301 0.04248,-6.54165c-0.03662,-1.44014 -0.20068,-5.68861 0.04395,-6.91952zM154.24805,129.11498c1.73291,0.02462 3.77637,0.34652 5.02881,-0.85494c0.14795,-0.14388 0.29443,-0.29055 0.43652,-0.44029c0.80713,-0.83956 1.1748,-1.47325 1.13818,-2.68965c-0.03662,-1.11824 -0.51709,-2.17581 -1.33447,-2.93991c-1.49121,-1.36864 -3.34863,-0.95721 -5.24121,-1.00864c-0.05713,2.64409 -0.06738,5.28891 -0.02783,7.93343z" fill="#105b41"/><path d="M103.04106,118.43373c2.02061,-0.12498 4.35908,-0.23267 6.31201,0.37025c1.64854,0.50886 0.62754,2.19559 0.1875,3.27705c-1.38442,-0.67135 -4.78008,-2.2224 -6.08101,-0.11883c-0.20332,0.32864 -0.08394,0.55223 0.05317,0.87106c2.51104,2.14211 8.98359,0.11692 6.96504,7.16377c-0.87041,0.86402 -1.94399,1.77083 -3.21606,1.85581c-3.02563,0.3345 -4.9144,0.26886 -7.40698,-1.56277l1.15957,-2.43793c1.90708,1.15486 3.82661,2.11647 6.18589,1.13919c0.28975,-0.12 0.44312,-0.56425 0.50977,-0.84937c-0.65654,-1.80087 -5.7334,-1.71545 -7.12983,-3.64027c-0.62549,-0.86227 -0.28638,-2.755 -0.17212,-3.77448c0.52822,-0.69406 1.82212,-1.94695 2.63306,-2.29347z" fill="#105b41"/><path d="M180.16113,117.72985l0.31641,0.03941c0.42188,0.66798 0.15674,6.55395 0.12891,7.69329c1.54395,-1.32248 2.39209,-2.74445 4.0752,-3.96276c1.00635,0.00264 2.0127,0.0211 3.01904,0.05538l0.13477,0.14813c-0.26074,0.87164 -2.85791,3.27852 -3.63281,4.05067c1.0166,1.63281 2.51367,3.39412 3.70313,4.96905c0.25635,0.32513 0.37939,0.43077 0.47754,0.83091l-0.19482,0.23531c-0.67822,0.26095 -2.38623,0.10432 -3.21533,0.08205c-1.09863,-1.31721 -2.24707,-2.59412 -3.0249,-4.11866c-0.38672,0.446 -0.79395,1.01977 -1.15283,1.50021l-0.16113,2.75647c-1.1748,-0.1241 -1.84277,-0.11839 -3.0293,-0.08718c0.08496,-1.49288 0.01611,-3.39822 0.01758,-4.92642l0.02344,-9.24668c0.81592,0.02945 1.69482,-0.00381 2.51514,-0.01919z" fill="#105b41"/><path d="M189.66943,117.78435c1.04004,0.00982 1.96289,-0.02755 3,-0.07853c0.15234,1.58461 0.11865,6.25667 -0.00439,7.8275c1.27734,-1.21215 2.84619,-3.18035 4.23779,-4.07455c1.14258,0.11472 2.36865,0.07004 3.52295,0.05348c-1.50879,1.4901 -2.46973,2.70885 -4.12793,4.1547c0.63867,1.23809 1.72266,2.48057 2.60742,3.58606c0.4834,0.75912 1.42236,1.5238 1.37842,2.38988c-0.62695,0.51399 -2.4668,0.24469 -3.39551,0.19121c-0.97412,-1.47926 -2.02588,-2.44028 -2.98828,-4.06606l-1.12793,1.56688c-0.00586,0.85157 -0.09961,1.73274 -0.17285,2.58372c-0.96533,-0.02505 -1.93066,-0.03985 -2.89453,-0.04425z" fill="#105b41"/><path d="M169.03271,121.53701c0.40869,-0.05011 0.81885,-0.08322 1.229,-0.09934c3.02783,-0.12 5.45801,1.75882 5.72314,4.93228c0.03076,0.36337 -0.08203,0.70725 -0.34277,0.96835c-0.83496,0.37011 -6.12451,0.19619 -7.4165,0.18139c0.11865,0.217 0.24609,0.42959 0.37939,0.63765c1.21289,1.87061 3.36768,1.50387 4.99512,0.42329l1.62012,1.62973c-2.8125,3.02504 -7.81641,2.2731 -9.67383,-1.4419c-1.03418,-2.06944 -0.02783,-5.33652 1.93652,-6.50355c0.44092,-0.26168 1.05176,-0.51853 1.5498,-0.72791zM171.05713,125.60013c0.56982,0.03853 1.24365,0.15736 1.7168,-0.12689c0.43506,-0.91648 -1.80322,-1.68907 -2.48877,-1.83017c-0.61523,0.27985 -1.61426,0.79179 -1.875,1.4542c0.33105,0.79794 1.87354,0.5386 2.64697,0.50285z" fill="#105b41"/><path d="M131.73164,121.39884c5.34873,0.42784 4.07827,6.57359 3.99199,10.57869c-0.96797,-0.00615 -2.01387,-0.06168 -2.98799,-0.09626c-0.10693,-2.41171 0.9542,-10.30704 -3.78179,-7.00684c-0.65156,1.40995 -0.37456,5.27425 -0.45073,7.10853c-1.03403,-0.08601 -2.10249,-0.03443 -3.13784,0.01494c0.06563,-3.21771 0.01201,-7.27366 -0.04497,-10.49635c1.44609,0.03839 2.49038,-0.54476 3.27554,0.82227c1.54468,-0.69172 1.48916,-0.80937 3.13579,-0.92498z" fill="#105b41"/><path d="M112.62803,121.5244l3.00352,-0.04322c0.15601,1.79999 -0.33325,6.49916 0.68423,7.16596c4.61587,3.02474 3.42773,-6.2974 3.44121,-7.10106l3.30293,-0.06256c-0.04614,1.34754 -0.01304,2.87368 -0.01479,4.23514l-0.00308,6.28905c-0.7043,-0.05172 -2.22671,0.07092 -2.88442,-0.16205c-0.14312,-0.0507 -0.17314,-0.6589 -0.24067,-0.96263c-0.42466,0.0419 -1.0062,0.56644 -1.41929,0.75677c-2.11904,0.97611 -4.27295,0.23634 -5.32954,-1.76688c-0.26338,-0.51047 -0.43931,-1.06168 -0.52046,-1.63047c-0.11426,-0.79692 -0.2064,-6.13813 -0.01963,-6.71806z" fill="#105b41"/><path d="M145.29229,121.48074c1.03271,0.02681 2.06514,0.04733 3.09932,0.06154c-0.0791,1.11794 -0.02344,2.75749 -0.01611,3.91485c0.02344,2.1427 0.02344,4.28554 -0.00146,6.42824c-0.68115,0.02447 -2.22319,0.12776 -2.78306,-0.11062c-0.04189,-0.29861 -0.09038,-0.59619 -0.14546,-0.89274c-0.30234,0.02842 -0.78677,0.63091 -1.05601,0.90564c-6.5647,0.71062 -6.46216,-2.37317 -6.39375,-7.87424c0.00747,-0.60234 -0.11133,-1.90534 0.15425,-2.38621c0.82969,-0.05026 2.17354,0.00484 3.03926,0.01524c-0.03838,1.20395 -1.15898,10.17708 3.30396,7.19307c1.17759,-0.78725 0.82178,-5.56759 0.79907,-7.25476z" fill="#105b41"/></g></svg></svg>